<?xml version="1.0" standalone="no"?>
<!DOCTYPE svg PUBLIC "-//W3C//DTD SVG 1.1//EN" "http://www.w3.org/Graphics/SVG/1.1/DTD/svg11.dtd" >
<svg xmlns="http://www.w3.org/2000/svg" xmlns:xlink="http://www.w3.org/1999/xlink" version="1.1">
<metadata></metadata>
<defs>
<font id="universedisplay" horiz-adv-x="1024" >
<font-face units-per-em="2048" ascent="2048" descent="0" />
<missing-glyph horiz-adv-x="512" />
<glyph horiz-adv-x="0" />
<glyph horiz-adv-x="682" />
<glyph unicode=" "  horiz-adv-x="512" />
<glyph unicode="&#x09;" horiz-adv-x="512" />
<glyph unicode="&#xa0;" horiz-adv-x="512" />
<glyph unicode="!" />
<glyph unicode="&#x22;" horiz-adv-x="552" />
<glyph unicode="#" />
<glyph unicode="$" />
<glyph unicode="%" horiz-adv-x="1114" />
<glyph unicode="&#x26;" horiz-adv-x="1439" />
<glyph unicode="'" />
<glyph unicode="(" horiz-adv-x="292" />
<glyph unicode=")" horiz-adv-x="292" />
<glyph unicode="*" />
<glyph unicode="+" />
<glyph unicode="," />
<glyph unicode="-" />
<glyph unicode="." horiz-adv-x="225" d="M0 0v205h205v-205h-205z" />
<glyph unicode="/" />
<glyph unicode="0" horiz-adv-x="1351" d="M0 502q0 -229 150 -369q100 -92 251 -123l101 103q-174 6 -275 104q-113 102 -110 285v604q-2 180 110 285q113 104 312 104t315 -106q115 -102 115 -283v-604q0 -186 -115 -287q-80 -74 -207 -94l-121 -121h11q246 0 395 133q150 133 153 369v604q-3 229 -153 364 q-150 139 -393 138q-240 0 -389 -135q-150 -137 -150 -367v-604z" />
<glyph unicode="1" horiz-adv-x="696" d="M0 1497h313l117 100v17h-297l-133 -101v-16zM313 0h117v1470l-117 -120v-1350z" />
<glyph unicode="2" horiz-adv-x="1486" d="M0 0h201l149 109l10 8l193 137l516 375l2 4q150 141 150 379v88q0 238 -152 377q-152 135 -397 135q-250 -2 -398 -137q-111 -102 -139 -252l111 -23q25 115 106 191q115 106 320 106q209 0 323 -106q119 -104 121 -291v-88q0 -189 -115 -293l-512 -373zM373 0h633 l159 84v33h-630z" />
<glyph unicode="3" horiz-adv-x="1169" d="M0 156q70 -68 166 -111q98 -45 240 -45q225 0 362 152q135 150 135 403v18q1 107 -24 199q-27 92 -80 162q-49 63 -117 102l-59 -98q49 -29 86 -74q41 -53 59 -125q23 -76 23 -166v-18q0 -209 -107 -326q-104 -115 -278 -114q-115 0 -193 35t-131 88zM106 1526h625 l-338 -547h133l56 86l6 10l293 471v66h-707l-68 -60v-26z" />
<glyph unicode="4" horiz-adv-x="1257" d="M0 233h37l82 121v27l729 1137h143v32l-57 88h-152l-782 -1220v-185zM180 233h600v-233h113v233h98v119h-735z" />
<glyph unicode="5" horiz-adv-x="1200" d="M0 256q45 -106 137 -172q121 -84 318 -84q217 0 344 119q133 119 135 321v265q-2 204 -133 321q-129 119 -344 119q-76 0 -148 -25l-149 -147v-137l92 118q23 29 49.5 49.5t50.5 28.5q49 16 103 15q176 0 274 -93q102 -90 100 -249v-263q2 -162 -100 -252 q-98 -92 -274 -92q-311 0 -379 236zM160 1122l98 99v295h578v98h-621l-27 -23l-28 -26v-443z" />
<glyph unicode="6" horiz-adv-x="1243" d="M0 457q2 -213 135 -340q109 -96 266 -115h2l21 27q23 29 51 65v2q-168 4 -268 97q-104 94 -103 258v202q-2 125 66 217l2 2l43 60l21 26l51 68q41 53 88 109l94 114q51 63 107.5 136t117.5 141h209v37l-67 49h-191l-14 -19q-68 -78 -127.5 -144.5t-114.5 -133.5l-94 -117 l-88 -111l-51 -67l-21 -27l-47 -63q-88 -115 -88 -271v-202zM526 0q195 8 314 117q135 125 137 334v202q-2 211 -137 332q-98 92 -256 115l-15 -101q127 -20 201 -88q102 -92 102 -258v-202q0 -164 -102 -258q-63 -59 -156 -82l-59 -78q-14 -16 -29 -33z" />
<glyph unicode="7" horiz-adv-x="1183" d="M0 1509h795l102 105h-866l-31 -76v-29zM272 0h109l534 1380l3 9v124l-99 -102v-4z" />
<glyph unicode="8" horiz-adv-x="1185" d="M-20 432q0 -203 129 -319q104 -94 260 -113l92 92h-12q-174 0 -275 92q-96 90 -96 248v107q-2 82 37 147q43 68 100 117l45 35l-41 39q-53 45 -86 112q-35 66 -35 148v39q0 162 90 249q86 90 261 91q172 0 258 -91q86 -88 86 -249v-37q2 -82 -35 -150q-33 -68 -84 -112 l-41 -39l43 -35q61 -49 104 -117q18 -33 27.5 -69.5t15.5 -77.5v-107q0 -158 -100 -248q-53 -49 -123 -69l-117 -115q188 8 305 113q129 117 132 319v107h-2q0 113 -56 198q-39 57 -84 105q37 47 68 102q47 86 49 193h2v39q-2 201 -119 319q-115 117 -329 117 q-213 0 -330 -117q-117 -119 -117 -319v-39q0 -106 45 -193q31 -55 68 -102q-45 -47 -82 -105q-53 -86 -53 -198v-107z" />
<glyph unicode="9" horiz-adv-x="1253" d="M2 956q0 -106 37 -189t104 -144q100 -90 258 -113l15 100q-125 18 -203 88q-106 92 -107 258v203q2 164 107 258q66 57 158 80q31 41 61 80l29 35q-195 -10 -318 -121q-139 -123 -141 -332v-203zM106 0h259l14 18q68 78 116 141.5t103 133.5l94 117l88 112l51 66l21 26 q33 41 47 66q88 117 88 276v203q0 209 -135 332q-106 97 -266 117l-23 -27l-51 -68l-2 -2q170 -4 272 -94q102 -94 101 -258v-203q2 -129 -66 -217l-2 -2q-12 -20 -43 -61l-20 -27l-52 -65l-86 -111l-94 -115q-55 -66 -110.5 -137t-114.5 -139h-143l-46 -49v-33z" />
<glyph unicode="A" horiz-adv-x="1331" d="M0 0h84l463 1419q0 -12 72.5 -234t158.5 -486.5t232 -698.5h88l-543 1614h-16zM436 459l123 -459h74l-123 459h-74z" />
<glyph unicode="B" horiz-adv-x="901" d="M0 0h393q176 0 278.5 125t102.5 324q0 53 -13 121.5t-45 133t-86.5 116.5t-140.5 73q86 53 125 142t39 188q0 188 -104.5 289.5t-284.5 101.5h-264v-637h72l-2 553h200q170 0 240 -89t70 -218q0 -139 -63.5 -216t-174.5 -77h-268l45 -90h274q84 0 143.5 -38t97.5 -95.5 t56.5 -129t18.5 -139.5q0 -66 -18.5 -129t-55.5 -113.5t-96.5 -81t-141.5 -30.5h-327l2 844h-72v-928z" />
<glyph unicode="C" horiz-adv-x="1656" d="M2 834q2 -326 186 -558q197 -247 523 -272l4 66q-301 20 -479 249q-170 213 -170 515q0 158 51 273.5t153 223.5q205 215 512 215q186 0 336 -80t244 -223l49 39q-102 156 -266 244q-152 82 -343 82h-9q-166 0 -311.5 -56.5t-256.5 -173.5q-111 -119 -167 -245.5 t-56 -298.5zM834 68l2 -66q168 10 307 80q160 82 268 231l-47 41q-98 -135 -248 -213q-129 -66 -282 -73z" />
<glyph unicode="D" horiz-adv-x="1144" d="M0 0h184q90 0 168 20l-16 62q-70 -18 -152 -19h-121v1481h121q133 0 245 -52t192.5 -144.5t127 -222.5t46.5 -285v-43q0 -115 -31 -225.5t-84 -204t-125 -163t-152 -100.5l25 -59q90 37 168 111.5t136.5 175t92 220.5t33.5 245v43q0 168 -51 308t-141.5 242.5t-213 160 t-268.5 57.5h-184v-1608z" />
<glyph unicode="E" horiz-adv-x="815" d="M0 0h569v55h-512v424h82v56h-139v-535zM0 598h57v958h492v58h-549v-1016z" />
<glyph unicode="F" horiz-adv-x="792" d="M0 0h55v1264h82v57h-137v-1321zM0 1556h547v58h-547v-58z" />
<glyph unicode="G" horiz-adv-x="1171" d="M0 770q0 -332 128 -538.5t351 -231.5l6 66q-117 12 -197.5 78.5t-129.5 165t-70.5 219t-21.5 241.5v76q0 131 26.5 257t81.5 224t142 158.5t208 60.5q104 0 159.5 -26.5t100.5 -61.5l41 51q-59 47 -125.5 75t-175.5 28q-236 0 -380 -210t-144 -556v-76zM502 606h338v-448 q-106 -80 -252 -92l4 -66q174 12 301 117l12 10v547h-403v-68z" />
<glyph unicode="H" horiz-adv-x="1032" d="M0 0h70v553v65v996h-70v-1614zM98 553h598v-553h70v1190h-70v-572h-598v-65z" />
<glyph unicode="I" horiz-adv-x="278" d="M0 0h53v1614h-53v-1614z" />
<glyph unicode="J" horiz-adv-x="788" d="M0 121q82 -106 207 -119l6 68q-102 8 -168 94zM270 70l6 -68q117 12 181.5 106.5t64.5 253.5v1252h-59v-1252q-2 -268 -193 -292z" />
<glyph unicode="K" horiz-adv-x="1013" d="M0 461h70v2l157 274l43 68l459 803h-82l-577 -1018v1022h-70v-1151zM262 680l406 -680h80l-445 745z" />
<glyph unicode="L" horiz-adv-x="884" d="M0 0h618v70h-550v200h-68v-270zM0 403h68v1211h-68v-1211z" />
<glyph unicode="M" horiz-adv-x="1196" d="M0 0h66v1475l16 -31l59 31l-75 139h-66v-1614zM141 1333l324 -600l399 746v-1479h66v1614h-68l-397 -740l-264 492z" />
<glyph unicode="N" horiz-adv-x="1046" d="M0 31h63v1188q0 51 -2 119.5t-2 70.5q2 -6 28.5 -67.5t51.5 -106.5l29 -55h74l-228 434h-14v-1583zM537 432l225 -432h18v1579h-65v-1184q0 -55 2 -122.5t2 -69.5q-4 6 -29.5 66.5t-50.5 107.5l-29 55h-73z" />
<glyph unicode="O" horiz-adv-x="1802" d="M0 1202l59 -33q100 178 273 277q170 98 373 100q328 -2 544 -219q217 -213 219 -528q0 -158 -55 -282t-162 -232q-219 -219 -534 -219q-197 0 -357 84l-30 -60q174 -90 387 -90q340 0 579 240q119 117 179.5 252t60.5 307q0 342 -240 577q-240 233 -591 236 q-217 -2 -408 -109q-186 -109 -297 -301z" />
<glyph unicode="P" horiz-adv-x="983" d="M0 0h72v414h69q283 0 429.5 167t146.5 418v27q0 252 -148.5 420t-427.5 168h-141v-66h92h45q252 0 379 -145.5t127 -378.5v-23q0 -229 -127 -374.5t-379 -145.5h-65h-45.5h-22.5h-4v-481z" />
<glyph unicode="Q" horiz-adv-x="1136" d="M0 870q0 -281 109 -469t299 -200v-201h59v201q190 14 296.5 202.5t106.5 466.5v70q0 289 -115.5 481.5t-318.5 192.5t-319.5 -192.5t-116.5 -481.5v-70zM63 872v66q0 268 99.5 442t273.5 174q172 0 272.5 -174t100.5 -442v-66q0 -258 -92 -428t-250 -186v250h-59v-252 q-162 14 -253.5 186t-91.5 430z" />
<glyph unicode="R" horiz-adv-x="991" d="M0 420q61 -2 82 -2h59q141 0 248 43l254 -461h82l-274 489q131 74 200.5 208t69.5 304v29q0 252 -150.5 418t-429.5 166h-141v-649q35 -2 70 -2v585h67q252 0 381 -146.5t129 -375.5v-22q0 -227 -129 -373t-381 -146h-67h-70v-65z" />
<glyph unicode="S" horiz-adv-x="919" d="M2 1290q0 -117 58.5 -199.5t152.5 -170.5l182 -170q86 -80 135.5 -171.5t49.5 -183.5v-26v-12q0 -58 -17 -105h76q14 49 14 102v13v28q0 111 -56 211.5t-157 196.5l-176 166q-84 80 -138 149.5t-54 173.5v13q0 109 60.5 175t168.5 66q78 0 127 -23.5t100 -70.5l47 53 q-57 53 -117.5 80t-156.5 27q-125 0 -212 -81t-87 -224v-17zM201 8q43 -8 96 -8q111 0 190.5 45t122.5 129h-84q-72 -104 -229 -106q-53 0 -96 12v-72z" />
<glyph unicode="T" horiz-adv-x="1032" d="M0 1548h346v-1548h72v1548h184q-4 33 -2 39v27h-600v-66zM653 1548h113v66h-113v-66z" />
<glyph unicode="U" horiz-adv-x="1210" d="M0 522q0 -246 118 -378t316 -144v29.5v31.5q-160 12 -266.5 129t-106.5 332v1090h-61v-1090zM510 0q197 12 315.5 145.5t118.5 376.5v1090h-49v-1090q0 -215 -113.5 -331.5t-271.5 -127.5v-25v-7v-31z" />
<glyph unicode="V" horiz-adv-x="1214" d="M0 1614l342 -1258l41 189l-293 1069h-90zM416 84l24 -84h17l491 1614h-84q-141 -477 -225 -763t-153.5 -524.5t-69.5 -242.5z" />
<glyph unicode="W" horiz-adv-x="1351" d="M0 1614l268 -1614h11l30 113l-248 1501h-61zM346 588q0 -4 1 -28.5t4 -55.5t6 -58.5t5 -33.5q55 295 89 473t63 329.5t29 157.5q0 -8 41 -224t90 -471t131 -677h12l268 1614h-65l-209 -1292l-250 1292h-37z" />
<glyph unicode="X" horiz-adv-x="1079" d="M2 0h82l61 137h-43t-39 2zM70 1614l55 -127h41t43 2l-53 125h-86zM608 1491q18 0 43 -1t41 -1l53 125h-81zM666 137l61 -137h86l-61 137h-86z" />
<glyph unicode="Y" horiz-adv-x="1112" d="M0 1614l57 -150h88l-55 150h-90zM371 0h86v569l389 1045h-88l-387 -1045v-569z" />
<glyph unicode="Z" horiz-adv-x="1128" d="M0 0h188v76h-86l770 1528v10h-172q0 -20 -1 -44t-1 -32h72l-770 -1526v-12zM219 1538h111v34v42h-111v-76zM623 0h104v76h-104v-76z" />
<glyph unicode="a" horiz-adv-x="1363" d="M0 0h84l463 1419q0 -12 72.5 -234t158.5 -486.5t232 -698.5h88l-543 1614h-16zM436 459l123 -459h74l-123 459h-74z" />
<glyph unicode="b" horiz-adv-x="1040" d="M0 0h393q176 0 278.5 125t102.5 324q0 53 -13 121.5t-45 133t-86.5 116.5t-140.5 73q86 53 125 142t39 188q0 188 -104.5 289.5t-284.5 101.5h-264v-637h72l-2 553h200q170 0 240 -89t70 -218q0 -139 -63.5 -216t-174.5 -77h-268l45 -90h274q84 0 143.5 -38t97.5 -95.5 t56.5 -129t18.5 -139.5q0 -66 -18.5 -129t-55.5 -113.5t-96.5 -81t-141.5 -30.5h-327l2 844h-72v-928z" />
<glyph unicode="c" horiz-adv-x="1677" d="M2 834q2 -326 186 -558q197 -247 523 -272l4 66q-301 20 -479 249q-170 213 -170 515q0 158 51 273.5t153 223.5q205 215 512 215q186 0 336 -80t244 -223l49 39q-102 156 -266 244q-152 82 -343 82h-9q-166 0 -311.5 -56.5t-256.5 -173.5q-111 -119 -167 -245.5 t-56 -298.5zM834 68l2 -66q168 10 307 80q160 82 268 231l-47 41q-98 -135 -248 -213q-129 -66 -282 -73z" />
<glyph unicode="d" horiz-adv-x="1124" d="M0 0h184q90 0 168 20l-16 62q-70 -18 -152 -19h-121v1481h121q133 0 245 -52t192.5 -144.5t127 -222.5t46.5 -285v-43q0 -115 -31 -225.5t-84 -204t-125 -163t-152 -100.5l25 -59q90 37 168 111.5t136.5 175t92 220.5t33.5 245v43q0 168 -51 308t-141.5 242.5t-213 160 t-268.5 57.5h-184v-1608z" />
<glyph unicode="e" horiz-adv-x="835" d="M0 0h569v55h-512v424h82v56h-139v-535zM0 598h57v958h492v58h-549v-1016z" />
<glyph unicode="f" horiz-adv-x="813" d="M0 0h55v1264h82v57h-137v-1321zM0 1556h547v58h-547v-58z" />
<glyph unicode="g" horiz-adv-x="1171" d="M0 770q0 -332 128 -538.5t351 -231.5l6 66q-117 12 -197.5 78.5t-129.5 165t-70.5 219t-21.5 241.5v76q0 131 26.5 257t81.5 224t142 158.5t208 60.5q104 0 159.5 -26.5t100.5 -61.5l41 51q-59 47 -125.5 75t-175.5 28q-236 0 -380 -210t-144 -556v-76zM502 606h338v-448 q-106 -80 -252 -92l4 -66q174 12 301 117l12 10v547h-403v-68z" />
<glyph unicode="h" horiz-adv-x="1032" d="M0 0h70v553v65v996h-70v-1614zM98 553h598v-553h70v1190h-70v-572h-598v-65z" />
<glyph unicode="i" horiz-adv-x="319" d="M0 0h53v1614h-53v-1614z" />
<glyph unicode="j" horiz-adv-x="788" d="M0 121q82 -106 207 -119l6 68q-102 8 -168 94zM270 70l6 -68q117 12 181.5 106.5t64.5 253.5v1252h-59v-1252q-2 -268 -193 -292z" />
<glyph unicode="k" horiz-adv-x="1013" d="M0 461h70v2l157 274l43 68l459 803h-82l-577 -1018v1022h-70v-1151zM262 680l406 -680h80l-445 745z" />
<glyph unicode="l" horiz-adv-x="884" d="M0 0h618v70h-550v200h-68v-270zM0 403h68v1211h-68v-1211z" />
<glyph unicode="m" horiz-adv-x="1196" d="M0 0h66v1475l16 -31l59 31l-75 139h-66v-1614zM141 1333l324 -600l399 746v-1479h66v1614h-68l-397 -740l-264 492z" />
<glyph unicode="n" horiz-adv-x="1046" d="M0 31h63v1188q0 51 -2 119.5t-2 70.5q2 -6 28.5 -67.5t51.5 -106.5l29 -55h74l-228 434h-14v-1583zM537 432l225 -432h18v1579h-65v-1184q0 -55 2 -122.5t2 -69.5q-4 6 -29.5 66.5t-50.5 107.5l-29 55h-73z" />
<glyph unicode="o" horiz-adv-x="1802" d="M0 1202l59 -33q100 178 273 277q170 98 373 100q328 -2 544 -219q217 -213 219 -528q0 -158 -55 -282t-162 -232q-219 -219 -534 -219q-197 0 -357 84l-30 -60q174 -90 387 -90q340 0 579 240q119 117 179.5 252t60.5 307q0 342 -240 577q-240 233 -591 236 q-217 -2 -408 -109q-186 -109 -297 -301z" />
<glyph unicode="p" horiz-adv-x="983" d="M0 0h72v414h69q283 0 429.5 167t146.5 418v27q0 252 -148.5 420t-427.5 168h-141v-66h92h45q252 0 379 -145.5t127 -378.5v-23q0 -229 -127 -374.5t-379 -145.5h-65h-45.5h-22.5h-4v-481z" />
<glyph unicode="q" horiz-adv-x="1136" d="M0 870q0 -281 109 -469t299 -200v-201h59v201q190 14 296.5 202.5t106.5 466.5v70q0 289 -115.5 481.5t-318.5 192.5t-319.5 -192.5t-116.5 -481.5v-70zM63 872v66q0 268 99.5 442t273.5 174q172 0 272.5 -174t100.5 -442v-66q0 -258 -92 -428t-250 -186v250h-59v-252 q-162 14 -253.5 186t-91.5 430z" />
<glyph unicode="r" horiz-adv-x="991" d="M0 420q61 -2 82 -2h59q141 0 248 43l254 -461h82l-274 489q131 74 200.5 208t69.5 304v29q0 252 -150.5 418t-429.5 166h-141v-649q35 -2 70 -2v585h67q252 0 381 -146.5t129 -375.5v-22q0 -227 -129 -373t-381 -146h-67h-70v-65z" />
<glyph unicode="s" horiz-adv-x="919" d="M2 1290q0 -117 58.5 -199.5t152.5 -170.5l182 -170q86 -80 135.5 -171.5t49.5 -183.5v-26v-12q0 -58 -17 -105h76q14 49 14 102v13v28q0 111 -56 211.5t-157 196.5l-176 166q-84 80 -138 149.5t-54 173.5v13q0 109 60.5 175t168.5 66q78 0 127 -23.5t100 -70.5l47 53 q-57 53 -117.5 80t-156.5 27q-125 0 -212 -81t-87 -224v-17zM201 8q43 -8 96 -8q111 0 190.5 45t122.5 129h-84q-72 -104 -229 -106q-53 0 -96 12v-72z" />
<glyph unicode="t" horiz-adv-x="1032" d="M0 1548h346v-1548h72v1548h184q-4 33 -2 39v27h-600v-66zM653 1548h113v66h-113v-66z" />
<glyph unicode="u" horiz-adv-x="1210" d="M0 522q0 -246 118 -378t316 -144v29.5v31.5q-160 12 -266.5 129t-106.5 332v1090h-61v-1090zM510 0q197 12 315.5 145.5t118.5 376.5v1090h-49v-1090q0 -215 -113.5 -331.5t-271.5 -127.5v-25v-7v-31z" />
<glyph unicode="v" horiz-adv-x="1214" d="M0 1614l342 -1258l41 189l-293 1069h-90zM416 84l24 -84h17l491 1614h-84q-141 -477 -225 -763t-153.5 -524.5t-69.5 -242.5z" />
<glyph unicode="w" horiz-adv-x="1351" d="M0 1614l268 -1614h11l30 113l-248 1501h-61zM346 588q0 -4 1 -28.5t4 -55.5t6 -58.5t5 -33.5q55 295 89 473t63 329.5t29 157.5q0 -8 41 -224t90 -471t131 -677h12l268 1614h-65l-209 -1292l-250 1292h-37z" />
<glyph unicode="x" horiz-adv-x="1079" d="M2 0h82l61 137h-43t-39 2zM70 1614l55 -127h41t43 2l-53 125h-86zM608 1491q18 0 43 -1t41 -1l53 125h-81zM666 137l61 -137h86l-61 137h-86z" />
<glyph unicode="y" horiz-adv-x="1112" d="M0 1614l57 -150h88l-55 150h-90zM371 0h86v569l389 1045h-88l-387 -1045v-569z" />
<glyph unicode="z" horiz-adv-x="1138" d="M0 0h188v76h-86l770 1528v10h-172q0 -20 -1 -44t-1 -32h72l-770 -1526v-12zM219 1538h111v34v42h-111v-76zM623 0h104v76h-104v-76z" />
<glyph unicode="&#x25fc;" horiz-adv-x="1617" d="M0 0v1618h1618v-1618h-1618z" />
</font>
</defs>
</svg>
